<svg xmlns="http://www.w3.org/2000/svg" width="308" height="317" viewBox="0 0 308 317">
  <g fill="none" fill-rule="evenodd">
    <path fill="#FFF" d="M87.9640261,261.581181 L87.9640261,285.574978 L220.033019,285.574978 L220.033019,260.580047 L218.826417,260.580047 C227.164686,243.824173 226,207.020807 226,161.078296 C226,120.570756 203.00003,88.0846533 157.00009,63.6199865 C205.870278,56.4102892 235.891413,73.2654852 247.063497,114.185575 C258.23558,155.105664 261.565201,218.377139 257.052357,304 L52.9457327,304 C48.0198999,263.920531 46.154728,238.819739 47.350217,228.697623 C59.097476,243.898859 73.1249261,254.420963 87.9640255,261.581181 Z" opacity=".2"/>
    <g stroke="#FFF" stroke-linecap="round" stroke-linejoin="round" stroke-width="14.7" transform="translate(8 8)">
      <path d="M225.06047,300.509772 L66.9395302,300.509772 C58.8359276,300.523659 51.0860357,297.189656 45.5210046,291.295522 C39.9559736,285.401388 37.0694837,277.47 37.543557,269.375391 L45.5245638,133.55772 C48.2651241,86.8958685 86.8953857,50.4675108 133.609597,50.4934853 L158.390403,50.4934853 C205.081928,50.4986694 243.677408,86.9185372 246.416644,133.55772 L254.397651,269.375391 C254.871115,277.459787 251.992491,285.381851 246.440364,291.274103 C240.888237,297.166355 233.153859,300.507444 225.06047,300.509772 L225.06047,300.509772 Z"/>
      <path d="M37.543557 271.757899L14.1296644 270.287215C6.04699555 269.782694-.104970627 262.831256.372348993 254.742085L3.76758389 197.076564C4.20607872 189.538118 10.2789597 183.556922 17.8188591 183.237427M254.456443 271.757899L277.870336 270.287215C285.953004 269.782694 292.104971 262.831256 291.627651 254.742085L288.232416 197.076564C287.793921 189.538118 281.72104 183.556922 274.181141 183.237427M116.603458 27.2713844L116.604027 19.0502606C116.561974 14.2598631 118.85435 9.7491719 122.747785 6.96123779 136.931932-2.08202989 155.068068-2.08202989 169.252215 6.96123779 173.14565 9.7491719 175.438026 14.2598631 175.395973 19.0502606L175.396542 27.2713844M79.8590604 271.096091L79.8590604 182.855049C79.8590604 150.365594 106.181111 124.027687 138.651007 124.027687L153.348993 124.027687C185.818889 124.027687 212.14094 150.365594 212.14094 182.855049L212.14094 271.096091M109.255034 182.855049L182.744966 182.855049M175.395973 219.62215L175.395973 204.915309"/>
    </g>
  </g>
</svg>
