<svg width="800" height="500" viewBox="0 0 800 500" fill="none" xmlns="http://www.w3.org/2000/svg">
  <rect width="800" height="500" rx="40" fill="#F5F7FF"/>
  <rect x="36" y="36" width="728" height="56" rx="18" fill="#FFFFFF" stroke="#DCE2F6"/>
  <circle cx="72" cy="64" r="8" fill="#FFB4A3"/>
  <circle cx="98" cy="64" r="8" fill="#FFD87A"/>
  <circle cx="124" cy="64" r="8" fill="#A4D1B1"/>
  <rect x="168" y="50" width="156" height="28" rx="14" fill="#EDF1FF"/>
  <rect x="342" y="50" width="104" height="28" rx="14" fill="#EDF1FF"/>
  <rect x="470" y="50" width="130" height="28" rx="14" fill="#EDF1FF"/>
  <rect x="624" y="50" width="96" height="28" rx="14" fill="#5F74D9"/>
  <rect x="36" y="120" width="188" height="344" rx="28" fill="#FFFFFF" stroke="#DCE2F6"/>
  <rect x="260" y="120" width="504" height="344" rx="28" fill="#FFFFFF" stroke="#DCE2F6"/>
  <rect x="64" y="152" width="100" height="18" rx="9" fill="#E6EBFC"/>
  <rect x="64" y="192" width="132" height="68" rx="20" fill="#F4F7FF"/>
  <rect x="64" y="278" width="132" height="68" rx="20" fill="#F4F7FF"/>
  <rect x="64" y="364" width="132" height="68" rx="20" fill="#F4F7FF"/>
  <rect x="292" y="152" width="170" height="18" rx="9" fill="#E6EBFC"/>
  <rect x="292" y="196" width="440" height="154" rx="24" fill="#F6F8FF"/>
  <path d="M330 302C360 264 389 242 420 242C451 242 477 271 506 271C540 271 570 212 606 212C650 212 678 284 716 284" stroke="#5F74D9" stroke-width="10" stroke-linecap="round"/>
  <circle cx="420" cy="242" r="10" fill="#5F74D9"/>
  <circle cx="506" cy="271" r="10" fill="#5F74D9"/>
  <circle cx="606" cy="212" r="10" fill="#5F74D9"/>
  <rect x="292" y="374" width="138" height="54" rx="18" fill="#EEF2FF"/>
  <rect x="446" y="374" width="138" height="54" rx="18" fill="#EEF2FF"/>
  <rect x="600" y="374" width="132" height="54" rx="18" fill="#5F74D9" fill-opacity="0.12"/>
</svg>
