<svg  viewBox="0 0 103 47" xmlns="http://www.w3.org/2000/svg" xmlns:xlink="http://www.w3.org/1999/xlink"><title>rd-sms_logo--white</title><desc>Created using Figma</desc><use xlink:href="#a" transform="translate(46)" fill="#FFF"/><use xlink:href="#b" transform="translate(0 5)" fill="#FFF"/><defs><path id="a" fill-rule="evenodd" d="M4 0a4 4 0 0 0-4 4v40.826c0 1.76 2.108 2.661 3.381 1.447l6.46-6.166A4 4 0 0 1 12.603 39H53a4 4 0 0 0 4-4V4a4 4 0 0 0-4-4H4zm12.177 26.067c.964-.759 1.446-1.805 1.446-3.138 0-.677-.12-1.264-.359-1.763-.24-.5-.615-.947-1.128-1.344-.512-.396-1.32-.823-2.42-1.281-.977-.404-1.654-.729-2.03-.975-.376-.246-.646-.505-.81-.779-.164-.28-.246-.615-.246-1.005 0-.567.205-1.022.615-1.364.41-.348 1.012-.522 1.805-.522 1.046 0 2.235.28 3.568.84l.78-2c-1.422-.628-2.851-.943-4.287-.943-1.497 0-2.69.36-3.578 1.077-.889.718-1.333 1.702-1.333 2.953 0 .998.28 1.853.84 2.564.561.71 1.525 1.343 2.892 1.897 1.326.533 2.201.994 2.625 1.384.424.39.636.865.636 1.425 0 .622-.233 1.118-.697 1.487-.458.37-1.173.554-2.144.554-.662 0-1.38-.093-2.153-.277a11.342 11.342 0 0 1-2.174-.759v2.318c1.08.526 2.468.79 4.163.79 1.696 0 3.025-.38 3.99-1.14zm6.48-11.587L27.006 27h2.164l4.501-12.5h.082c-.027.253-.061.978-.102 2.174a106.278 106.278 0 0 0-.051 2.912V27h2.358V12.009h-3.466l-4.286 11.925h-.061L23.98 12.01h-3.456V27h2.225v-7.29c0-1.628-.058-3.37-.174-5.23h.082zm24.446 11.587c.964-.759 1.446-1.805 1.446-3.138 0-.677-.12-1.264-.36-1.763-.238-.5-.614-.947-1.127-1.344-.513-.396-1.32-.823-2.42-1.281-.977-.404-1.654-.729-2.03-.975-.376-.246-.646-.505-.81-.779-.164-.28-.246-.615-.246-1.005 0-.567.205-1.022.615-1.364.41-.348 1.012-.522 1.805-.522 1.046 0 2.235.28 3.568.84l.78-2c-1.423-.628-2.851-.943-4.287-.943-1.497 0-2.69.36-3.578 1.077-.89.718-1.334 1.702-1.334 2.953 0 .998.28 1.853.841 2.564.56.71 1.525 1.343 2.892 1.897 1.326.533 2.201.994 2.625 1.384.424.39.636.865.636 1.425 0 .622-.233 1.118-.698 1.487-.458.37-1.172.554-2.143.554-.663 0-1.38-.093-2.153-.277a11.342 11.342 0 0 1-2.174-.759v2.318c1.08.526 2.468.79 4.163.79 1.696 0 3.025-.38 3.989-1.14z"/><path id="b" d="M14.658 7.182h.81c.544 0 .938-.101 1.182-.303.245-.202.367-.501.367-.899 0-.403-.132-.693-.396-.869-.264-.175-.66-.263-1.191-.263h-.772v2.334zm0 .966V11h-1.167V3.861h2.017c.921 0 1.603.173 2.046.518.442.345.664.866.664 1.562 0 .89-.462 1.522-1.387 1.9L18.848 11H17.52l-1.71-2.852h-1.152zM23.145 11l-.23-.752h-.039c-.26.329-.523.553-.786.674-.264.117-.602.176-1.016.176-.53 0-.945-.144-1.245-.43-.296-.286-.444-.692-.444-1.216 0-.556.206-.976.62-1.26.413-.283 1.043-.437 1.89-.463l.932-.03v-.288c0-.345-.081-.602-.244-.771-.16-.173-.409-.26-.747-.26-.277 0-.542.042-.796.123a6.007 6.007 0 0 0-.732.288l-.372-.82c.294-.153.614-.269.962-.347.349-.081.678-.122.987-.122.687 0 1.204.15 1.552.45.352.299.528.769.528 1.41V11h-.82zm-1.71-.781c.417 0 .75-.116 1.002-.347.253-.234.38-.561.38-.981v-.47l-.693.03c-.54.02-.934.11-1.182.274-.244.16-.366.405-.366.737 0 .24.072.428.215.561.143.13.358.196.645.196zm6.87.879c-.683 0-1.213-.246-1.591-.738h-.069c.046.456.069.733.069.83v2.212h-1.148V5.6h.928c.026.1.08.341.161.722h.059c.358-.547.895-.82 1.611-.82.674 0 1.198.244 1.573.732.377.489.566 1.174.566 2.056 0 .882-.192 1.57-.576 2.066-.381.494-.909.742-1.582.742zm-.278-4.659c-.455 0-.789.134-1 .4-.209.268-.313.694-.313 1.28v.171c0 .658.104 1.134.312 1.43.209.294.549.44 1.02.44.398 0 .704-.163.919-.488.215-.326.322-.79.322-1.392 0-.605-.107-1.063-.322-1.372-.212-.312-.524-.469-.938-.469zM32.944 11h-1.147V5.6h1.147V11zm-1.216-6.831c0-.205.056-.363.166-.474.114-.11.276-.166.484-.166.202 0 .358.056.469.166.114.111.17.269.17.474 0 .195-.056.35-.17.464-.111.11-.267.166-.47.166-.207 0-.369-.056-.483-.166-.11-.114-.165-.269-.165-.464zm4.683 6.929c-.674 0-1.2-.245-1.577-.733-.378-.488-.566-1.173-.566-2.055 0-.886.19-1.574.57-2.066.385-.495.916-.742 1.593-.742.71 0 1.25.262 1.62.786h.06a6.87 6.87 0 0 1-.084-.918V3.402h1.153V11h-.899l-.2-.708h-.054c-.367.537-.906.806-1.616.806zm.308-.928c.472 0 .815-.132 1.03-.396.215-.267.325-.698.332-1.294v-.16c0-.681-.11-1.164-.332-1.45-.221-.287-.568-.43-1.04-.43-.404 0-.715.164-.933.493-.218.325-.327.79-.327 1.396 0 .6.106 1.056.318 1.372.211.313.529.469.952.469zM7.266 20.362c0 1.179-.328 2.08-.982 2.705-.654.622-1.596.933-2.827.933H1.46v-7.139h2.207c1.136 0 2.02.306 2.651.918.632.612.948 1.473.948 2.583zm-1.23.04c0-1.71-.8-2.564-2.398-2.564H2.627v5.18h.83c1.719 0 2.578-.872 2.578-2.617zm5.004 3.696c-.84 0-1.497-.244-1.973-.733-.472-.491-.708-1.167-.708-2.026 0-.882.22-1.576.66-2.08.439-.505 1.043-.757 1.811-.757.713 0 1.276.216 1.69.65.413.432.62 1.028.62 1.787v.62h-3.6c.016.524.158.927.425 1.21.267.28.643.42 1.128.42.319 0 .615-.029.888-.087.277-.062.573-.163.89-.303v.932c-.28.134-.564.228-.85.284a5.205 5.205 0 0 1-.982.083zm-.21-4.727c-.364 0-.658.116-.879.347-.218.23-.348.568-.39 1.01h2.45c-.006-.445-.113-.782-.321-1.01-.209-.231-.495-.347-.86-.347zM15.59 24h-1.147v-7.598h1.148V24zm2.794 0h-1.148v-5.4h1.148V24zm-1.216-6.831c0-.205.055-.363.166-.474.114-.11.275-.166.483-.166.202 0 .358.056.47.166.113.111.17.269.17.474a.63.63 0 0 1-.17.464c-.111.11-.268.166-.47.166-.208 0-.37-.055-.483-.166a.641.641 0 0 1-.166-.464zM21.26 24l-2.051-5.4h1.21l1.1 3.14c.188.527.302.953.341 1.279h.04c.029-.235.143-.661.341-1.28l1.099-3.14h1.22L22.5 24h-1.24zm6.48.098c-.84 0-1.498-.244-1.973-.733-.472-.491-.708-1.167-.708-2.026 0-.882.22-1.576.659-2.08.44-.505 1.043-.757 1.811-.757.713 0 1.276.216 1.69.65.413.432.62 1.028.62 1.787v.62H26.24c.017.524.158.927.425 1.21.267.28.643.42 1.128.42.319 0 .615-.029.889-.087a4.79 4.79 0 0 0 .888-.303v.932c-.28.134-.563.228-.85.284a5.204 5.204 0 0 1-.98.083zm-.21-4.727c-.365 0-.658.116-.88.347-.218.23-.348.568-.39 1.01h2.45c-.006-.445-.113-.782-.321-1.01-.209-.231-.495-.347-.86-.347zm6.352-.869c.231 0 .421.016.571.049l-.112 1.07a2.171 2.171 0 0 0-.508-.06c-.459 0-.832.15-1.118.45-.283.3-.425.688-.425 1.167V24h-1.147v-5.4h.898l.151.952h.059c.179-.322.412-.578.698-.767.29-.189.6-.283.933-.283zm.757.098h1.25l1.098 3.061c.166.436.277.846.332 1.23h.04c.029-.178.082-.395.16-.649.079-.257.492-1.471 1.24-3.642H40l-2.31 6.118c-.42 1.123-1.12 1.684-2.1 1.684a3.3 3.3 0 0 1-.741-.083v-.908c.172.04.37.059.59.059.554 0 .943-.32 1.167-.962l.2-.508-2.167-5.4z"/></defs></svg>
