<svg xmlns="http://www.w3.org/2000/svg" xmlns:xlink="http://www.w3.org/1999/xlink"  viewBox="0 0 32 40"><defs><clipPath id="b"><rect width="32" height="40"/></clipPath></defs><g id="a" clip-path="url(#b)"><g transform="translate(-0.08 -0.158)"><path d="M4.991,9.952a4.9,4.9,0,1,0-4.9-4.9A4.9,4.9,0,0,0,4.991,9.952Z" transform="translate(0.006)" fill="#fff"/><path d="M20.237,9.952a4.9,4.9,0,1,0-4.9-4.9A4.9,4.9,0,0,0,20.237,9.952Z" transform="translate(6.754)" fill="#fff"/><path d="M32.08,19.576V9.164H22.24a.33.33,0,0,0-.045.176c.045,4.059,0,8.162.179,12.221a8.768,8.768,0,0,0,3.4,6.838,10.331,10.331,0,0,1,.805.706A5.32,5.32,0,0,1,26,29.37a12.785,12.785,0,0,1-5.77.529,11.123,11.123,0,0,1-7.335-3.618,12.021,12.021,0,0,1-2.773-7.809c-.089-2.779-.045-5.559-.045-8.382V9.164H.1c0,3-.045,5.912,0,8.824a29.72,29.72,0,0,0,.358,4.9,16.164,16.164,0,0,0,15.3,13.544h.85a14.168,14.168,0,0,0,1.923-.176C26.266,35.017,32.035,27.914,32.08,19.576Z" transform="translate(0 3.729)" fill="#fff"/></g></g></svg>
