<svg xmlns="http://www.w3.org/2000/svg" viewBox="0 0 169.84067 48.617611" fill="#fff">
  <path d="M28.773 27.246h-2.646v-2.45H7.865v2.45H5.22V14.924c1.46 0 2.645 1.185 2.645 2.646v4.58h18.262v-2.816c0-1.46 1.185-2.646 2.646-2.646zM9.467 19.984c0-1.04.843-1.882 1.883-1.882s1.882.843 1.882 1.882v.764H9.467zm4.947 0c0-1.04.843-1.882 1.882-1.882h6.346c1.04 0 1.883.843 1.883 1.882v.764h-10.11zm2.582-16.222C7.61 3.762 0 11.372 0 20.758 0 34.03 16.996 44.856 16.996 44.856S33.992 34.03 33.992 20.758c0-9.387-7.61-16.996-16.996-16.996M49.825 33.006h-4.527V4.528c0-2.5 2.027-4.528 4.527-4.528zM72.032 33.006h-4.527v-13.35c0-2.64-2.378-4.787-5.3-4.787-2.922 0-5.3 2.146-5.3 4.786v13.35h-4.527v-13.35c0-5.136 4.408-9.315 9.827-9.315 5.42 0 9.827 4.18 9.827 9.316zM94.412 33.006h-4.527v-13.35c0-2.64-2.378-4.787-5.3-4.787-2.923 0-5.3 2.146-5.3 4.786v13.35h-4.528v-13.35c0-5.136 4.41-9.315 9.828-9.315 5.42 0 9.827 4.18 9.827 9.316zM108.667 28.958c-3.91 0-7.09-3.18-7.09-7.09 0-3.908 3.18-7.088 7.09-7.088 3.908 0 7.088 3.18 7.088 7.09 0 3.908-3.18 7.088-7.088 7.088m0-18.705c-2.668 0-5.126.907-7.09 2.423V4.528c0-2.5-2.026-4.528-4.526-4.528v33.006h4.528v-1.944c1.963 1.517 4.42 2.423 7.09 2.423 6.403 0 11.615-5.21 11.615-11.616s-5.212-11.617-11.616-11.617M133.83 14.78c-3.91 0-7.09 3.18-7.09 7.09 0 3.908 3.18 7.088 7.09 7.088 3.908 0 7.088-3.18 7.088-7.09 0-3.907-3.18-7.087-7.088-7.087m0 18.705c-6.405 0-11.616-5.21-11.616-11.616s5.21-11.617 11.616-11.617c6.404 0 11.616 5.21 11.616 11.616 0 6.404-5.212 11.615-11.616 11.615"/>
  <path d="M163.812 10.253l-7.2 8.188-7.198-8.187h-6.028L153.6 21.87 143.47 33.385h6.03l7.11-8.088 7.114 8.088h6.028L159.627 21.87l10.214-11.617zM45.298 48.157V39.36c0-.196.178-.294.533-.294h.108c.355 0 .533.098.533.293v3.772h4.827V39.36c0-.196.178-.294.533-.294h.107c.356 0 .533.098.533.293v8.797c0 .196-.177.294-.533.294h-.107c-.355 0-.533-.097-.533-.293v-4.012H46.47v4.012c0 .196-.177.294-.532.294h-.107c-.354 0-.532-.097-.532-.293M56.136 46.91c.302.423.778.634 1.427.634.648 0 1.128-.21 1.44-.633.31-.42.466-1.077.466-1.965 0-.89-.157-1.547-.467-1.974-.312-.425-.792-.638-1.44-.638-.65 0-1.125.21-1.427.633-.302.422-.453 1.08-.453 1.973s.15 1.55.453 1.973m1.46 1.594c-1 0-1.764-.302-2.293-.907-.528-.604-.793-1.48-.793-2.633 0-1.15.267-2.037.8-2.66.533-.62 1.293-.932 2.28-.932.986 0 1.74.31 2.26.926.52.618.78 1.507.78 2.666 0 1.16-.257 2.04-.767 2.64-.512.6-1.267.9-2.267.9M62.788 46.664v-4.252h-.666c-.178 0-.267-.134-.267-.4v-.16c0-.267.09-.4.267-.4h.666l.16-1.4c.018-.195.16-.293.427-.293h.133c.267 0 .4.097.4.292v1.4h1.12c.178 0 .266.133.266.4v.16c0 .266-.088.4-.266.4h-1.12v4.146c0 .657.24.986.72.986.15 0 .28-.01.387-.033.106-.02.168-.032.186-.032.08 0 .148.082.2.246.055.165.08.29.08.38 0 .267-.323.4-.972.4-.445 0-.842-.135-1.193-.407-.35-.27-.527-.748-.527-1.433M71.32 44.438c0-1.404-.533-2.106-1.6-2.106-1.146 0-1.768.702-1.866 2.106zm-3.866 3.2c-.533-.578-.8-1.46-.8-2.647 0-1.185.262-2.085.787-2.698s1.27-.92 2.24-.92c1.884 0 2.827 1.16 2.827 3.48 0 .08-.054.19-.16.333-.107.142-.2.213-.28.213h-4.213c.053.738.244 1.28.573 1.626.33.347.822.52 1.48.52.604 0 1.16-.142 1.667-.426.168-.09.262-.134.28-.134.088 0 .188.09.3.267.11.18.166.312.166.4 0 .18-.242.366-.727.56-.484.196-1.042.294-1.673.294-1.11 0-1.932-.29-2.466-.867M74.2 46.664v-7.972c0-.195.177-.293.533-.293h.053c.356 0 .534.097.534.292v7.866c0 .657.24.986.72.986.15 0 .28-.01.386-.033.107-.02.17-.032.187-.032.08 0 .146.082.2.246.053.165.08.29.08.38 0 .267-.325.4-.974.4-.445 0-.843-.135-1.194-.407-.35-.27-.526-.748-.526-1.433M93.076 48.157V39.36c0-.196.178-.294.534-.294h.106c.356 0 .534.098.534.293v3.772h4.826V39.36c0-.196.177-.294.533-.294h.105c.356 0 .534.098.534.293v8.797c0 .196-.18.294-.535.294h-.106c-.357 0-.534-.097-.534-.293v-4.012H94.25v4.012c0 .196-.178.294-.534.294h-.106c-.356 0-.534-.097-.534-.293M103.915 46.91c.302.423.777.634 1.426.634.65 0 1.13-.21 1.44-.633.312-.42.467-1.077.467-1.965 0-.89-.155-1.547-.466-1.974-.31-.425-.79-.638-1.44-.638-.648 0-1.123.21-1.425.633-.302.422-.453 1.08-.453 1.973s.15 1.55.453 1.973m1.46 1.594c-1 0-1.765-.302-2.293-.907-.53-.604-.794-1.48-.794-2.633 0-1.15.267-2.037.8-2.66.533-.62 1.293-.932 2.28-.932.986 0 1.74.31 2.26.926.52.618.78 1.507.78 2.666 0 1.16-.256 2.04-.767 2.64-.51.6-1.265.9-2.266.9M109.607 47.704c0-.09.055-.222.166-.4.11-.177.21-.266.3-.266.01 0 .08.042.214.126.133.085.324.17.573.254.25.084.548.126.9.126.35 0 .64-.1.866-.3.227-.2.34-.47.34-.813 0-.34-.1-.608-.3-.8-.2-.19-.597-.37-1.193-.54-.595-.168-1.026-.383-1.293-.645-.267-.262-.4-.66-.4-1.193 0-.534.204-.98.613-1.34.41-.36.942-.54 1.6-.54.453 0 .857.058 1.213.173.356.116.533.245.533.387 0 .116-.052.264-.154.446-.102.183-.193.274-.273.274-.01 0-.067-.027-.173-.08-.303-.16-.643-.24-1.02-.24-.378 0-.672.078-.88.233-.21.156-.314.358-.314.607 0 .248.078.444.234.586.155.142.42.27.793.387.835.258 1.402.54 1.7.847.297.306.446.768.446 1.386 0 .617-.22 1.126-.66 1.526-.44.4-.967.6-1.58.6-.614 0-1.143-.09-1.587-.273-.444-.18-.666-.357-.666-.526M116.072 46.664v-4.252h-.666c-.18 0-.267-.134-.267-.4v-.16c0-.267.087-.4.266-.4h.666l.16-1.4c.018-.195.16-.293.427-.293h.132c.267 0 .4.097.4.292v1.4h1.12c.178 0 .266.133.266.4v.16c0 .266-.088.4-.266.4h-1.12v4.146c0 .657.24.986.72.986.15 0 .28-.01.387-.033.105-.02.167-.032.185-.032.08 0 .147.082.2.246.054.165.08.29.08.38 0 .267-.324.4-.973.4-.445 0-.842-.135-1.193-.407-.352-.27-.528-.748-.528-1.433M124.604 44.438c0-1.404-.533-2.106-1.6-2.106-1.146 0-1.77.702-1.866 2.106zm-3.866 3.2c-.533-.578-.8-1.46-.8-2.647 0-1.185.262-2.085.787-2.698.524-.613 1.27-.92 2.24-.92 1.883 0 2.826 1.16 2.826 3.48 0 .08-.053.19-.16.333-.106.142-.2.213-.28.213h-4.212c.053.738.244 1.28.573 1.626.33.347.823.52 1.48.52.605 0 1.16-.142 1.667-.426.17-.09.263-.134.28-.134.09 0 .19.09.3.267.112.18.167.312.167.4 0 .18-.242.366-.727.56-.484.196-1.042.294-1.673.294-1.11 0-1.933-.29-2.466-.867M127.484 46.664v-7.972c0-.195.177-.293.533-.293h.053c.355 0 .534.097.534.292v7.866c0 .657.24.986.72.986.15 0 .28-.01.386-.033.106-.02.17-.032.187-.032.08 0 .146.082.2.246.053.165.08.29.08.38 0 .267-.325.4-.974.4-.444 0-.842-.135-1.193-.407-.35-.27-.526-.748-.526-1.433M82.41 44.974c.236-.315.644-.655 1.212-1.01l2.396 2.685c-.574.613-1.273.924-2.076.924-.582 0-1.05-.14-1.39-.415-.342-.274-.507-.635-.507-1.102 0-.4.122-.764.364-1.084m.673-3.95c0-.346.108-.615.328-.823.22-.205.512-.31.873-.31.32 0 .572.093.766.284.194.19.29.434.29.745 0 .283-.105.55-.31.797-.203.245-.577.54-1.11.875-.327-.378-.55-.676-.663-.887-.115-.213-.174-.442-.174-.68m5.805 6.573c-.596-.303-1.09-.66-1.47-1.064.284-.466.51-1 .67-1.59.14-.512.23-1.067.265-1.65.006-.112-.034-.222-.113-.306-.08-.084-.192-.133-.308-.133h-.283c-.222 0-.406.176-.418.4-.053.926-.247 1.74-.577 2.424L84.6 43.37c.67-.438 1.15-.842 1.423-1.202.29-.38.438-.82.438-1.302 0-.6-.2-1.086-.593-1.44-.392-.35-.93-.527-1.597-.527-.71 0-1.293.194-1.728.58-.438.388-.66.907-.66 1.544 0 .355.085.702.252 1.033.155.306.426.685.805 1.128-.724.442-1.26.888-1.593 1.328-.352.465-.53.994-.53 1.572 0 .497.13.943.39 1.324.257.38.626.68 1.094.89.467.21 1.01.318 1.615.318.562 0 1.092-.11 1.574-.324.454-.2.87-.49 1.24-.862.447.433.986.806 1.604 1.11.15.073.333.032.437-.1l.242-.308c.064-.082.09-.19.066-.292-.023-.106-.093-.195-.19-.244"/>
</svg>
